<svg xmlns="http://www.w3.org/2000/svg" xmlns:xlink="http://www.w3.org/1999/xlink" viewBox="0 1169 1920 1080">
  <defs>
    <style>
      .cls-1 {
        clip-path: url(#clip-Web_1920_3);
      }

      .cls-2, .cls-3, .cls-4, .cls-5 {
        fill: #fff;
      }

      .cls-2 {
        stroke: #efdcdc;
      }

      .cls-2, .cls-3, .cls-4, .cls-5, .cls-6, .cls-7 {
        stroke-width: 3px;
      }

      .cls-3 {
        stroke: #eedcdc;
      }

      .cls-4, .cls-6 {
        stroke: #eedada;
      }

      .cls-5 {
        stroke: #f5eaea;
      }

      .cls-6, .cls-7 {
        fill: none;
      }

      .cls-7 {
        stroke: #f2e3e3;
      }

      .cls-8 {
        fill: url(#linear-gradient);
      }
    </style>
    <linearGradient id="linear-gradient" x1="0.5" x2="0.5" y2="1" gradientUnits="objectBoundingBox">
      <stop offset="0" stop-color="#cafbe8"/>
      <stop offset="1" stop-color="#5b46c9"/>
      <stop offset="1" stop-color="#a8fedc"/>
    </linearGradient>
    <clipPath id="clip-Web_1920_3">
      <rect y="1169" width="1920" height="1080"/>
    </clipPath>
  </defs>
  <g id="Web_1920_3" data-name="Web 1920 – 3" class="cls-1">
    <rect class="cls-8" y="1169" width="1920" height="1080"/>
    <g id="Group_5" data-name="Group 5" transform="translate(1919.5 2249.5) rotate(180)">
      <g id="Group_1" data-name="Group 1">
        <path id="Path_1" data-name="Path 1" class="cls-2" d="M0,899c14.174-18.65,28.334-26.636,35.5-42.5,1-2.211-6.035-17.349-5-19.649,9.925-21.964,16-35.351,16-35.351L116,831l35,68,80,54V793l33-64,76-49,17,98,27,53L487,941l73-187,20-38,93-84L849,810l36,108,109-87h89l56-131,59,78,51,121,87-170,162-112,68,99,40,155,20-40,66-53,44,69,42,139,40-87,42-28,30,47,33,68v90H0Z" transform="translate(0 4)"/>
        <path id="Path_2" data-name="Path 2" class="cls-3" d="M121,759l75.947,85.533L224,875v79l-82-56-32-66Z" transform="translate(-28 -91)"/>
        <path id="Path_3" data-name="Path 3" class="cls-4" d="M337,684,505,878l-24,63L380,835l-31-59Z" transform="translate(15 -53)"/>
        <path id="Path_4" data-name="Path 4" class="cls-5" d="M1133,704,989,837h89Z" transform="translate(-29 -36)"/>
        <line id="Line_1" data-name="Line 1" class="cls-6" x2="213" y2="287" transform="translate(672.5 636.5)"/>
        <line id="Line_2" data-name="Line 2" class="cls-6" x1="110" y2="112" transform="translate(229.5 685.5)"/>
        <line id="Line_3" data-name="Line 3" class="cls-6" y1="177" x2="127" transform="translate(230.5 780.5)"/>
        <line id="Line_4" data-name="Line 4" class="cls-6" x2="166" y2="67" transform="translate(1082.5 834.5)"/>
        <line id="Line_5" data-name="Line 5" class="cls-6" y1="11" x2="229" transform="translate(1336.5 721.5)"/>
        <line id="Line_6" data-name="Line 6" class="cls-6" x1="42" y2="105" transform="translate(1456.5 621.5)"/>
        <line id="Line_7" data-name="Line 7" class="cls-6" x1="149" y1="148" transform="translate(1456.5 726.5)"/>
        <line id="Line_8" data-name="Line 8" class="cls-6" x2="153" y2="157" transform="translate(1626.5 834.5)"/>
        <line id="Line_9" data-name="Line 9" class="cls-6" x1="114" y2="69" transform="translate(1776.5 922.5)"/>
        <path id="Path_6" data-name="Path 6" class="cls-6" d="M0,175,140.156,57.08,208,0" transform="translate(1248.5 726.5)"/>
        <line id="Line_11" data-name="Line 11" class="cls-6" x2="227" y2="117" transform="translate(1248.5 901.5)"/>
        <line id="Line_12" data-name="Line 12" class="cls-6" x1="130" y2="144" transform="translate(1475.5 874.5)"/>
        <line id="Line_13" data-name="Line 13" class="cls-6" x2="200" y2="40" transform="translate(1248.5 901.5)"/>
        <line id="Line_14" data-name="Line 14" class="cls-6" x1="157" y2="67" transform="translate(1448.5 874.5)"/>
        <line id="Line_15" data-name="Line 15" class="cls-6" x1="27" y1="77" transform="translate(1448.5 941.5)"/>
        <line id="Line_16" data-name="Line 16" class="cls-6" x1="8" y2="215" transform="translate(1448.5 726.5)"/>
        <line id="Line_17" data-name="Line 17" class="cls-6" x2="131" y2="361" transform="translate(579.5 719.5)"/>
        <line id="Line_18" data-name="Line 18" class="cls-6" x1="53" y2="321" transform="translate(710.5 759.5)"/>
        <line id="Line_19" data-name="Line 19" class="cls-6" x2="221" y2="136" transform="translate(486.5 944.5)"/>
        <line id="Line_20" data-name="Line 20" class="cls-6" x1="175" y2="157" transform="translate(710.5 923.5)"/>
        <line id="Line_21" data-name="Line 21" class="cls-6" x2="78" y2="126" transform="translate(229.5 954.5)"/>
        <path id="Path_5" data-name="Path 5" class="cls-6" d="M156.5,2,9.5,141" transform="translate(329.5 943.5)"/>
        <line id="Line_23" data-name="Line 23" class="cls-6" x2="117" y2="157" transform="translate(885.5 923.5)"/>
        <line id="Line_24" data-name="Line 24" class="cls-6" x1="80" y2="246" transform="translate(1002.5 834.5)"/>
        <line id="Line_25" data-name="Line 25" class="cls-6" x1="46" y2="179" transform="translate(1203.5 900.5)"/>
        <line id="Line_26" data-name="Line 26" class="cls-6" x2="79" y2="246" transform="translate(1082.5 834.5)"/>
        <line id="Line_27" data-name="Line 27" class="cls-6" x1="235" y2="62" transform="translate(1240.5 1017.5)"/>
        <line id="Line_28" data-name="Line 28" class="cls-7" x2="29" y2="162" transform="translate(1605.5 874.5)"/>
        <line id="Line_29" data-name="Line 29" class="cls-6" x2="159" y2="18" transform="translate(1475.5 1018.5)"/>
        <line id="Line_30" data-name="Line 30" class="cls-6" x1="103" y2="89" transform="translate(1673.5 991.5)"/>
        <line id="Line_31" data-name="Line 31" class="cls-6" x1="89" y1="89" transform="translate(1779.5 991.5)"/>
        <line id="Line_32" data-name="Line 32" class="cls-6" x1="39" y1="44" transform="translate(1634.5 1036.5)"/>
        <line id="Line_33" data-name="Line 33" class="cls-6" x1="13" y2="62" transform="translate(1462.5 1018.5)"/>
        <line id="Line_34" data-name="Line 34" class="cls-6" x1="117" y2="181" transform="translate(0.5 834.5)"/>
        <line id="Line_35" data-name="Line 35" class="cls-6" x1="150" y2="114" transform="translate(0.5 903.5)"/>
        <line id="Line_36" data-name="Line 36" class="cls-6" x1="233" y2="61" transform="translate(-2.5 957.5)"/>
        <line id="Line_37" data-name="Line 37" class="cls-6" x2="138" y2="65" transform="translate(0.5 1015.5)"/>
        <line id="Line_38" data-name="Line 38" class="cls-6" y1="123" x2="153" transform="translate(230.5 834.5)"/>
        <line id="Line_39" data-name="Line 39" class="cls-6" x1="213" y2="79" transform="translate(273.5 944.5)"/>
        <line id="Line_40" data-name="Line 40" class="cls-6" x1="38" y2="161" transform="translate(345.5 834.5)"/>
        <line id="Line_41" data-name="Line 41" class="cls-6" x1="48" y2="123" transform="translate(182.5 957.5)"/>
        <line id="Line_42" data-name="Line 42" class="cls-6" x2="77" y2="53" transform="translate(230.5 797.5)"/>
      </g>
      <g id="Group_2" data-name="Group 2">
        <path id="Path_2-2" data-name="Path 2" class="cls-3" d="M121,759l75.947,85.533L224,875v79l-82-56-32-66Z" transform="translate(-28 -91)"/>
        <path id="Path_3-2" data-name="Path 3" class="cls-4" d="M337,684,505,878l-24,63L380,835l-31-59Z" transform="translate(15 -53)"/>
        <path id="Path_4-2" data-name="Path 4" class="cls-5" d="M1133,704,989,837h89Z" transform="translate(-29 -36)"/>
        <line id="Line_1-2" data-name="Line 1" class="cls-6" x2="213" y2="287" transform="translate(672.5 636.5)"/>
        <line id="Line_2-2" data-name="Line 2" class="cls-6" x1="110" y2="112" transform="translate(229.5 685.5)"/>
        <line id="Line_3-2" data-name="Line 3" class="cls-6" y1="177" x2="127" transform="translate(230.5 780.5)"/>
        <line id="Line_4-2" data-name="Line 4" class="cls-6" x2="166" y2="67" transform="translate(1082.5 834.5)"/>
        <line id="Line_5-2" data-name="Line 5" class="cls-6" y1="11" x2="229" transform="translate(1336.5 721.5)"/>
        <line id="Line_6-2" data-name="Line 6" class="cls-6" x1="42" y2="105" transform="translate(1456.5 621.5)"/>
        <line id="Line_7-2" data-name="Line 7" class="cls-6" x1="149" y1="148" transform="translate(1456.5 726.5)"/>
        <line id="Line_8-2" data-name="Line 8" class="cls-6" x2="153" y2="157" transform="translate(1626.5 834.5)"/>
        <line id="Line_9-2" data-name="Line 9" class="cls-6" x1="114" y2="69" transform="translate(1776.5 922.5)"/>
        <path id="Path_6-2" data-name="Path 6" class="cls-6" d="M0,175,140.156,57.08,208,0" transform="translate(1248.5 726.5)"/>
        <line id="Line_11-2" data-name="Line 11" class="cls-6" x2="227" y2="117" transform="translate(1248.5 901.5)"/>
        <line id="Line_12-2" data-name="Line 12" class="cls-6" x1="130" y2="144" transform="translate(1475.5 874.5)"/>
        <line id="Line_13-2" data-name="Line 13" class="cls-6" x2="200" y2="40" transform="translate(1248.5 901.5)"/>
        <line id="Line_14-2" data-name="Line 14" class="cls-6" x1="157" y2="67" transform="translate(1448.5 874.5)"/>
        <line id="Line_15-2" data-name="Line 15" class="cls-6" x1="27" y1="77" transform="translate(1448.5 941.5)"/>
        <line id="Line_16-2" data-name="Line 16" class="cls-6" x1="8" y2="215" transform="translate(1448.5 726.5)"/>
        <line id="Line_17-2" data-name="Line 17" class="cls-6" x2="131" y2="361" transform="translate(579.5 719.5)"/>
        <line id="Line_18-2" data-name="Line 18" class="cls-6" x1="53" y2="321" transform="translate(710.5 759.5)"/>
        <line id="Line_19-2" data-name="Line 19" class="cls-6" x2="221" y2="136" transform="translate(486.5 944.5)"/>
        <line id="Line_20-2" data-name="Line 20" class="cls-6" x1="175" y2="157" transform="translate(710.5 923.5)"/>
        <line id="Line_21-2" data-name="Line 21" class="cls-6" x2="78" y2="126" transform="translate(229.5 954.5)"/>
        <path id="Path_5-2" data-name="Path 5" class="cls-6" d="M156.5,2,9.5,141" transform="translate(329.5 943.5)"/>
        <line id="Line_23-2" data-name="Line 23" class="cls-6" x2="117" y2="157" transform="translate(885.5 923.5)"/>
        <line id="Line_24-2" data-name="Line 24" class="cls-6" x1="80" y2="246" transform="translate(1002.5 834.5)"/>
        <line id="Line_25-2" data-name="Line 25" class="cls-6" x1="46" y2="179" transform="translate(1203.5 900.5)"/>
        <line id="Line_26-2" data-name="Line 26" class="cls-6" x2="79" y2="246" transform="translate(1082.5 834.5)"/>
        <line id="Line_27-2" data-name="Line 27" class="cls-6" x1="235" y2="62" transform="translate(1240.5 1017.5)"/>
        <line id="Line_28-2" data-name="Line 28" class="cls-7" x2="29" y2="162" transform="translate(1605.5 874.5)"/>
        <line id="Line_29-2" data-name="Line 29" class="cls-6" x2="159" y2="18" transform="translate(1475.5 1018.5)"/>
        <line id="Line_30-2" data-name="Line 30" class="cls-6" x1="103" y2="89" transform="translate(1673.5 991.5)"/>
        <line id="Line_31-2" data-name="Line 31" class="cls-6" x1="89" y1="89" transform="translate(1779.5 991.5)"/>
        <line id="Line_32-2" data-name="Line 32" class="cls-6" x1="39" y1="44" transform="translate(1634.5 1036.5)"/>
        <line id="Line_33-2" data-name="Line 33" class="cls-6" x1="13" y2="62" transform="translate(1462.5 1018.5)"/>
        <line id="Line_34-2" data-name="Line 34" class="cls-6" x1="117" y2="181" transform="translate(0.5 834.5)"/>
        <line id="Line_35-2" data-name="Line 35" class="cls-6" x1="150" y2="114" transform="translate(0.5 903.5)"/>
        <line id="Line_36-2" data-name="Line 36" class="cls-6" x1="233" y2="61" transform="translate(-2.5 957.5)"/>
        <line id="Line_37-2" data-name="Line 37" class="cls-6" x2="138" y2="65" transform="translate(0.5 1015.5)"/>
        <line id="Line_38-2" data-name="Line 38" class="cls-6" y1="123" x2="153" transform="translate(230.5 834.5)"/>
        <line id="Line_39-2" data-name="Line 39" class="cls-6" x1="213" y2="79" transform="translate(273.5 944.5)"/>
        <line id="Line_40-2" data-name="Line 40" class="cls-6" x1="38" y2="161" transform="translate(345.5 834.5)"/>
        <line id="Line_41-2" data-name="Line 41" class="cls-6" x1="48" y2="123" transform="translate(182.5 957.5)"/>
        <line id="Line_42-2" data-name="Line 42" class="cls-6" x2="77" y2="53" transform="translate(230.5 797.5)"/>
      </g>
    </g>
  </g>
</svg>
