<svg xmlns="http://www.w3.org/2000/svg" xmlns:xlink="http://www.w3.org/1999/xlink" viewBox="0 2339 1920 1080">
  <defs>
    <style>
      .cls-1 {
        clip-path: url(#clip-Web_1920_4);
      }

      .cls-2 {
        fill: #befff8;
        opacity: 0.55;
      }

      .cls-3 {
        font-size: 124px;
      }

      .cls-3, .cls-4, .cls-5 {
        font-family: TrebuchetMS-Bold, Trebuchet MS;
        font-weight: 700;
      }

      .cls-4, .cls-5 {
        fill: #0f0e0e;
      }

      .cls-4 {
        font-size: 25px;
      }

      .cls-5 {
        font-size: 35px;
      }

      .cls-13, .cls-6 {
        fill: #fff;
      }

      .cls-6 {
        stroke: #707070;
      }

      .cls-7 {
        fill: #3e50ff;
        opacity: 0.43;
      }

      .cls-8 {
        fill: #abb3ff;
      }

      .cls-11, .cls-12, .cls-9 {
        stroke: none;
      }

      .cls-10 {
        fill: none;
      }

      .cls-11 {
        fill: #867272;
      }

      .cls-12 {
        fill: #707070;
      }
    </style>
    <clipPath id="clip-Web_1920_4">
      <rect y="2339" width="1920" height="1080"/>
    </clipPath>
  </defs>
  <g id="Web_1920_4" data-name="Web 1920 – 4" class="cls-1">
    <rect class="cls-13" y="2339" width="1920" height="1080"/>
    <path id="Path_9" data-name="Path 9" class="cls-2" d="M0,0H973V1080H0Z" transform="translate(0 2339)"/>
    <text id="CISC101" class="cls-3" transform="translate(76 2577)"><tspan x="0" y="0">CISC101</tspan></text>
    <text id="Introduction_to_algorithms:_their_definition_design_coding_and_execution_on_computers._Intended_for_students_who_have_no_programming_experience._All_or_most_assignment_work_will_be_completed_during_lab_time." data-name="Introduction to algorithms: their definition, design, coding, and
execution on computers. Intended for students who have no
programming experience. All or most assignment work
will be completed during lab time." class="cls-4" transform="translate(76 2693)"><tspan x="0" y="0">Introduction to algorithms: their definition, design, coding, and</tspan><tspan x="0" y="29">execution on computers. Intended for students who have no</tspan><tspan x="0" y="58">programming experience. All or most assignment work</tspan><tspan x="0" y="87">will be completed during lab time.</tspan></text>
    <text id="Elements_of_Computing_Science" data-name="Elements of Computing Science" class="cls-5" transform="translate(76 2638)"><tspan x="0" y="0">Elements of Computing Science</tspan></text>
    <text id="credit:_3.0" data-name="credit: 3.0" class="cls-4" transform="translate(696 2512)"><tspan x="0" y="0">credit: 3.0</tspan></text>
    <text id="fall_winter" data-name="fall &amp; winter" class="cls-4" transform="translate(674 2556)"><tspan x="0" y="0">fall &amp; winter</tspan></text>
    <g id="Rectangle_6" data-name="Rectangle 6" class="cls-6" transform="translate(293 2855)">
      <rect class="cls-9" width="483" height="32" rx="13"/>
      <rect class="cls-10" x="0.5" y="0.5" width="482" height="31" rx="12.5"/>
    </g>
    <g id="Path_8" data-name="Path 8" class="cls-7" transform="translate(293 2855)">
      <path class="cls-9" d="M 282.8047180175781 31.5 L 12.94526958465576 31.5 C 9.618538856506348 31.5 6.4915771484375 30.23907661437988 4.14042329788208 27.94953918457031 C 1.792846202850342 25.66349983215332 0.5 22.62507629394531 0.5 19.39392280578613 L 0.5 12.60607719421387 C 0.5 9.374922752380371 1.792846202850342 6.33650016784668 4.14042329788208 4.050461769104004 C 6.4915771484375 1.760923027992249 9.618538856506348 0.5 12.94526958465576 0.5 L 282.8047180175781 0.5 C 285.6250915527344 0.5 287.3522033691406 0.538038432598114 288.7399597167969 0.5685769319534302 C 289.6938781738281 0.5896154046058655 290.5177001953125 0.6077307462692261 291.4377746582031 0.6077307462692261 C 292.5435791015625 0.6077307462692261 293.7357788085938 0.580763041973114 295.25 0.5208970904350281 L 295.25 31.48961639404297 C 291.9549560546875 31.42237091064453 289.94921875 31.39226913452148 288.7823486328125 31.39226913452148 C 287.8554992675781 31.39226913452148 287.4744567871094 31.41061592102051 287.0332336425781 31.431884765625 C 286.4030456542969 31.46223068237305 285.6187438964844 31.5 282.8047180175781 31.5 Z"/>
      <path class="cls-11" d="M 282.8047180175781 31 C 285.606689453125 31 286.3843383789063 30.96253776550293 287.0091857910156 30.93246078491211 C 287.4568481445313 30.91088485717773 287.843505859375 30.89226913452148 288.7823486328125 30.89226913452148 C 289.8916320800781 30.89226913452148 291.7531127929688 30.91935157775879 294.75 30.97941207885742 L 294.75 1.040226697921753 C 293.4700927734375 1.086588382720947 292.4205322265625 1.107730746269226 291.4377746582031 1.107730746269226 C 290.51220703125 1.107730746269226 289.6858215332031 1.08953845500946 288.7289123535156 1.068461537361145 C 287.3436279296875 1.037961483001709 285.6195678710938 1 282.8047180175781 1 L 12.94526958465576 1 C 9.749576568603516 1 6.746500015258789 2.210538387298584 4.489230632781982 4.408653736114502 C 2.239153861999512 6.599769115447998 1 9.51099967956543 1 12.60607719421387 L 1 19.39392280578613 C 1 22.48900032043457 2.239153861999512 25.40023040771484 4.489230632781982 27.59134674072266 C 6.746500015258789 29.78946113586426 9.749576568603516 31 12.94526958465576 31 L 282.8047180175781 31 M 295.75 32 C 291.8500671386719 31.91919708251953 289.9058227539063 31.89225578308105 288.7823486328125 31.89225578308105 C 286.5352172851563 31.89225578308105 287.5711975097656 32 282.8047180175781 32 L 12.94526958465576 32 C 5.795807838439941 32 0 26.35607719421387 0 19.39392280578613 L 0 12.60607719421387 C 0 5.643923282623291 5.795807838439941 0 12.94526958465576 0 L 282.8047180175781 0 C 287.5707397460938 0 289.1911315917969 0.107743538916111 291.4377746582031 0.107743538916111 C 292.5613098144531 0.107743538916111 293.8411560058594 0.08081755787134171 295.75 0 L 295.75 32 Z"/>
    </g>
    <g id="Rectangle_7" data-name="Rectangle 7" class="cls-6" transform="translate(293 3048)">
      <rect class="cls-9" width="483" height="32" rx="13"/>
      <rect class="cls-10" x="0.5" y="0.5" width="482" height="31" rx="12.5"/>
    </g>
    <g id="Rectangle_10" data-name="Rectangle 10" class="cls-6" transform="translate(293 3149)">
      <rect class="cls-9" width="483" height="32" rx="13"/>
      <rect class="cls-10" x="0.5" y="0.5" width="482" height="31" rx="12.5"/>
    </g>
    <g id="Rectangle_8" data-name="Rectangle 8" class="cls-6" transform="translate(293 2910)">
      <rect class="cls-9" width="483" height="32" rx="13"/>
      <rect class="cls-10" x="0.5" y="0.5" width="482" height="31" rx="12.5"/>
    </g>
    <g id="Path_10" data-name="Path 10" class="cls-8" transform="translate(293 2910)">
      <path class="cls-9" d="M 442 31.5 L 12.99999618530273 31.5 C 9.661162376403809 31.5 6.522107124328613 30.19977760314941 4.161162853240967 27.83883285522461 C 1.800218343734741 25.4778881072998 0.4999960660934448 22.33888816833496 0.4999960660934448 19 L 0.4999960660934448 13 C 0.4999960660934448 9.661110877990723 1.800218343734741 6.522110939025879 4.161162853240967 4.161166667938232 C 6.522107124328613 1.800222277641296 9.661162376403809 0.5 12.99999618530273 0.5 L 442 0.5 C 444.4136657714844 0.5 444.9464416503906 0.535111129283905 445.4164428710938 0.5660555362701416 C 445.7836608886719 0.5902222394943237 446.1007690429688 0.6111111044883728 447.1623229980469 0.6111111044883728 C 448.4585876464844 0.6111111044883728 450.7391052246094 0.5795554518699646 454.5220336914063 0.5090343356132507 C 454.5565490722656 2.346289873123169 454.519775390625 9.182537078857422 454.5067138671875 11.60727787017822 C 454.5026550292969 12.35916709899902 454.5 12.85588932037354 454.5 13 L 454.5 31.48932456970215 C 451.1898193359375 31.41995048522949 449.1749877929688 31.38888931274414 448.0028991699219 31.38888931274414 C 447.0718994140625 31.38888931274414 446.6890563964844 31.40783309936523 446.2458190917969 31.42972183227539 C 445.6130981445313 31.46105575561523 444.8256530761719 31.5 442 31.5 Z"/>
      <path class="cls-12" d="M 442 31 C 444.8132934570313 31 445.5938720703125 30.96141242980957 446.2210998535156 30.93035316467285 C 446.6709899902344 30.90811729431152 447.0595092773438 30.88888168334961 448.0028686523438 30.88888168334961 C 449.1176147460938 30.88888168334961 450.98828125 30.91683769226074 454 30.97883987426758 L 454 13 C 454 12.85452938079834 454.0026245117188 12.3572940826416 454.0066833496094 11.60458850860596 C 454.0187377929688 9.372635841369629 454.0511779785156 3.344249486923218 454.0289611816406 1.018256187438965 C 450.5419006347656 1.082271814346313 448.4033813476563 1.111117601394653 447.1622924804688 1.111117601394653 C 446.0842895507813 1.111117601394653 445.7595825195313 1.08970582485199 445.3835754394531 1.064941167831421 C 444.9212951660156 1.034529447555542 444.397216796875 1 442 1 L 12.99998950958252 1 C 9.794695854187012 1 6.781224727630615 2.24823522567749 4.514695644378662 4.514705657958984 C 2.24822473526001 6.781235218048096 0.9999895095825195 9.794706344604492 0.9999895095825195 13 L 0.9999895095825195 19 C 0.9999895095825195 22.20529365539551 2.24822473526001 25.21876525878906 4.514695644378662 27.48529434204102 C 6.781224727630615 29.75176429748535 9.794695854187012 31 12.99998950958252 31 L 442 31 M 455 32 C 451.0835571289063 31.91667175292969 449.131103515625 31.88888931274414 448.0028991699219 31.88888931274414 C 445.7462463378906 31.88888931274414 446.78662109375 32 442 32 L 12.99998950958252 32 C 5.82028341293335 32 -1.046932447934523e-05 26.17970657348633 -1.046932447934523e-05 19 L -1.046932447934523e-05 13 C -1.046932447934523e-05 5.82029390335083 5.82028341293335 0 12.99998950958252 0 L 442 0 C 446.2644348144531 0 444.7326354980469 0.1111109852790833 447.1622924804688 0.1111109852790833 C 448.3773498535156 0.1111109852790833 450.5827941894531 0.083343505859375 455 0 C 455.0822143554688 0.4408823549747467 455 12.21735286712646 455 13 L 455 32 Z"/>
    </g>
    <text id="Easiness:" class="cls-4" transform="translate(152 2877)"><tspan x="0" y="0">Easiness:</tspan></text>
    <text id="Usefulness:" class="cls-4" transform="translate(125 2934)"><tspan x="0" y="0">Usefulness:</tspan></text>
    <text id="Prof._Felicia:" data-name="Prof. Felicia:" class="cls-4" transform="translate(107 3071)"><tspan x="0" y="0">Prof. Felicia:</tspan></text>
    <text id="_64_" data-name="64%" class="cls-4" transform="translate(798 2873)"><tspan x="0" y="0">64%</tspan></text>
    <text id="_90_" data-name="90%" class="cls-4" transform="translate(798 2934)"><tspan x="0" y="0">90%</tspan></text>
  </g>
</svg>
